<svg xmlns="http://www.w3.org/2000/svg" viewBox="0 0 100 125">
  <path d="M70,40H55.157L47.11,12.228c-0.063-0.216-0.133-0.433-0.211-0.646c-0.914-2.51-2.75-4.514-5.171-5.643
    c-2.42-1.128-5.135-1.247-7.646-0.333c-2.51,0.913-4.514,2.75-5.643,5.17s-1.248,5.137-0.333,7.648
    c0.077,0.211,0.16,0.417,0.252,0.627L37.615,40H30v15H12.5v30h15v10h5V85h15v10h5V85h15v10h5V85h15V55H70V40z
    M32.934,17.037c-0.047-0.106-0.09-0.215-0.13-0.324c-0.457-1.255-0.397-2.613,0.167-3.823
    c0.564-1.21,1.566-2.128,2.821-2.585h0C36.351,10.101,36.929,10,37.505,10c0.72,0,1.438,0.158,2.11,0.471
    c1.21,0.564,2.128,1.566,2.586,2.823c0.039,0.107,0.074,0.215,0.105,0.324L49.952,40h-6.87L32.934,17.037z
    M37.5,47.5h25v10h-25V47.5z M80,62.5v15H20v-15H80z"/>
</svg>
